<svg xmlns="http://www.w3.org/2000/svg" version="1.1" xmlns:xlink="http://www.w3.org/1999/xlink" xmlns:svgjs="http://svgjs.dev/svgjs" width="1456" height="567" preserveAspectRatio="none" viewBox="0 0 1456 567"><g mask="url(&quot;#SvgjsMask1107&quot;)" fill="none"><rect width="1456" height="567" x="0" y="0" fill="rgba(239, 243, 247, 1)"></rect><path d="M235.3 611.17C359.06 609.27 469.88 458.45 706.25 458.37 942.61 458.29 941.72 529.25 1177.19 529.25 1412.67 529.24 1529.08 458.57 1648.14 458.37" stroke="rgba(153, 176, 21, 0.58)" stroke-width="2"></path><path d="M430.76 674.17C576.93 633.61 614.8 234.99 839.88 226.05 1064.96 217.11 1044.44 296.93 1249 296.93 1453.56 296.92 1554.32 226.31 1658.12 226.05" stroke="rgba(153, 176, 21, 0.58)" stroke-width="2"></path><path d="M490.74 603.79C613.78 586.81 678.94 302.56 883.98 300.13 1089.02 297.7 1080.6 371 1277.22 371 1473.84 371 1570.57 300.41 1670.46 300.13" stroke="rgba(153, 176, 21, 0.58)" stroke-width="2"></path><path d="M689.04 580.24C779.03 563.45 719.7 358.71 962.43 336.64 1205.16 314.57 1355.46 61.4 1509.21 53.14" stroke="rgba(153, 176, 21, 0.58)" stroke-width="2"></path><path d="M133.03 594.6C327.69 588.75 469.64 304.17 852.52 296.04 1235.4 287.91 1383.43 71.9 1572.01 69.24" stroke="rgba(153, 176, 21, 0.58)" stroke-width="2"></path></g><defs><mask id="SvgjsMask1107"><rect width="1456" height="567" fill="#ffffff"></rect></mask></defs></svg>